<svg version="1.1" id="Layer_1" xmlns="http://www.w3.org/2000/svg" xmlns:xlink="http://www.w3.org/1999/xlink" x="0px" y="0px"
	 viewBox="0 0 1000 1000" enable-background="new 0 0 1000 1000" xml:space="preserve">
<circle fill="#652D90" cx="500" cy="500" r="500"/>
<path fill="#FFFFFF" d="M230,497.1c0,31.5,7.2,61.6,17.2,91.7l84.5-30.1c7.2,20.1,18.6,38.7,31.5,54.4l-68.8,57.3
	c20.1,24.4,44.4,44.4,71.6,60.2l44.4-77.3c18.6,10,37.2,17.2,58.7,21.5l-15.8,88.8c14.3,2.9,30.1,4.3,45.8,4.3
	c15.8,0,31.5-1.4,47.3-4.3l-15.8-88.8c21.5-4.3,41.5-11.5,58.7-21.5l44.4,77.3c27.2-15.8,51.6-35.8,71.6-60.2l-68.8-57.3
	c14.3-17.2,24.4-34.4,31.5-54.4l84.5,30.1c11.5-28.6,17.2-60.2,17.2-91.7h-90.2c0-22.9-4.3-43-11.5-61.6l84.5-31.5
	c-11.5-28.6-27.2-55.9-47.3-80.2l-68.8,57.3c-12.9-15.8-28.6-30.1-47.3-40.1l44.4-77.3c-27.2-15.8-55.9-25.8-87.4-31.5l-15.8,90.2
	c-8.6-1.4-20.1-2.9-30.1-2.9c-11.5,0-21.5,1.4-31.5,2.9l-15.8-88.8c-30.1,4.3-60.2,15.8-87.4,31.5l44.4,77.3
	c-17.2,10-34.4,24.4-47.3,40.1l-68.8-57.3c-20.1,22.9-35.8,50.1-45.8,80.2l81.6,30.1c-7.2,20.1-12.9,40.1-12.9,61.6H230z"/>
</svg>