<?xml version="1.0" encoding="utf-8"?>
<!-- Generator: Adobe Illustrator 18.1.0, SVG Export Plug-In . SVG Version: 6.00 Build 0)  -->
<!DOCTYPE svg PUBLIC "-//W3C//DTD SVG 1.1//EN" "http://www.w3.org/Graphics/SVG/1.1/DTD/svg11.dtd">
<svg version="1.1" id="Layer_1" xmlns="http://www.w3.org/2000/svg" xmlns:xlink="http://www.w3.org/1999/xlink" x="0px" y="0px"
	 viewBox="0 0 330 330" enable-background="new 0 0 330 330" xml:space="preserve">
<g>
	<circle fill="#652D90" cx="165" cy="165" r="165"/>
	<g>
		<path fill="#FFFFFF" d="M170.7,76.5l0.4-20.4c-1.8-0.1-3.6-0.1-5.4-0.1c-7.6,0-15.1,0.8-22.3,2.3l0,0.3l-3.7,0.9
			c-4.2,1-8.3,2.2-12.4,3.4c-3.6,1.4-7.2,2.9-10.6,4.6l8.2,19.7l12.2,29.3c1.7-0.9,3.4-1.7,5.1-2.4c2.9-1.2,5.8-2.1,8.9-2.8
			c1.5-0.3,3-0.6,4.5-0.8c2.3-0.3,4.6-0.5,7-0.5c0.8,0,1.6,0,2.3,0c1.7,0.1,3.4,0.2,5.1,0.4l0.6-29.9L170.7,76.5z"/>
		<path fill="#FFFFFF" d="M239.8,173.1l16.2,0.8l16.6,0.8c0.3-3.2,0.4-6.4,0.4-9.7c0-5-0.4-10-1-14.8l-16.8,1.9l-15.8,1.8
			c-0.4-2.9-1.1-6.1-1.7-9l18.6-5.8l-0.6-2c-1.9-6.7-4.3-13.3-7.4-19.7l-1.6-2.8l-16.1,8.4l1.3-0.7c-0.4-0.6-0.7-1.2-1.1-1.8
			c-0.2-0.4-0.4-0.7-0.7-1.1c-0.1-0.1-0.1-0.2-0.2-0.2c-4.6-6.6-11-12.2-16.7-17.9l4-5.2l9.5-12.3c-0.3-0.2-0.5-0.4-0.8-0.6
			c-0.9-0.7-1.8-1.4-2.7-2.1c-0.6-0.4-1.2-0.8-1.7-1.3c-0.9-0.6-1.8-1.3-2.7-1.9c-0.5-0.3-1-0.7-1.5-1c-1.1-0.7-2.2-1.5-3.4-2.2
			c-0.1-0.1-0.2-0.1-0.3-0.2c-0.2-0.1-0.3-0.2-0.5-0.3c-3-1.8-5.9-3.5-9-5.1l-7.4,13.6l-4.4,8.1l1-2.3c-7.1-3-14.7-5.1-22.7-6
			l-0.6,27.8c3.6,0.4,7,1.2,10.3,2.3c0.6,0.2,1.1,0.4,1.6,0.6c4.8,1.7,9.3,4.2,13.4,7.1c0.7,0.5,1.4,1,2.1,1.6
			c4.4,3.5,8.3,7.7,11.6,12.4c0.1,0.2,0.3,0.4,0.4,0.6c3.2,4.8,5.7,10.1,7.4,15.8c0.1,0.2,0.1,0.4,0.2,0.7
			c1.3,4.9,2.1,10.1,2.2,15.4c0,1.8,0,3.6-0.2,5.4L239.8,173.1z"/>
		<path fill="#FFFFFF" d="M106.9,103.2l17.3,16.9l-19.8-19.2l-6.6-6.4l-1.6,1.7l-1.4,1.6c0,0-1.4,1.7-1.4,1.7c0,0-0.2,0.2-0.2,0.2
			c-0.1,0.1-1.9,2.4-1.9,2.4c-0.1,0.1-1.5,2.1-1.5,2.1l-1.2,1.6c0,0-1.1,1.7-1.1,1.7l-1.1,1.7c0,0-1,1.6-1,1.6
			c-0.1,0.1-1.1,1.9-1.1,1.9l-0.9,1.5L82,117c-0.1,0.1-1.3,2.4-1.3,2.4l1.9,1l5.4,2.9c-1.3,3.1-2.6,6.5-3.7,9.6l-10.9-3.7l-9.8-3
			c-3,7.8-5.1,16-6.2,24.5l11,1.6l6.7,1l11.4,1.6l-6.8-1c-0.7,4.4-1,8.9-1,13.5c0,2.1,0.1,4.2,0.2,6.2c-1.8,0.2-3.6,0.5-5.3,0.7
			c-7,1-13.2,1.8-16.5,2.3c1.2,11.8,4.4,23.1,9.1,33.5c0.6,1.2,1.4,2.8,1.4,2.8l28.7-14.9l-18.2,9.5l1.1,2
			c3.6,6.9,8.2,13.2,13.4,18.7l1.1,1.1l1.8,1.8l1.5-1.3l4.6-4.2c7.4,7.4,16.3,14,25.2,19.4c0.7,0.3,1.3,0.6,2,0.9l0.7-1.2l-6.3,15.7
			l-1.8,4.5c7.3,3.2,15.1,5.7,23.2,7.3l1.1-4.9l3.9-15.7c3.2,0.6,5.8,0.8,9.2,1.2l0-0.5l0.3,21.8c2.1,0.1,4.3,0.2,6.4,0.2
			c8.7,0,17.2-1,25.3-3l-0.5-2.4l-4.4-20.4l0.2,0.5c7.2-2.3,14-5.6,20.2-9.8l-14.2-20.1l16.5,23.4l0.8,1.1
			c0.1,0.1,11.6,15.1,11.6,15.1l4.5-3.2c5.5-3.9,10.7-8.2,15.6-12.9c0,0,4.4-4.2,4.4-4.2l-15.6-14.7l-3.6-3.4
			c5.6-7.3,10.1-15.6,13.2-24.6l5.5,1.1l11.3,2.3c0.1-0.5,0.2-0.9,0.3-1.4c0-0.1,0-0.2,0.1-0.3c0.4-1.7,0.7-3.4,1-5.1
			c0.1-0.5,0.2-1,0.3-1.5c0.2-1.3,0.5-2.6,0.7-3.9c0.1-0.9,0.2-1.7,0.4-2.6c0.1-0.6,0.1-1.1,0.2-1.7c0.1-0.7,0.2-1.5,0.3-2.2
			c0.1-0.9,0.2-1.8,0.3-2.8c0-0.3,0.1-0.6,0.1-1c0.1-0.8,0.1-1.6,0.2-2.5l-18.1-0.8l-17.9-0.8l-5.2-0.2c-0.4,4.5-1.3,8.9-2.6,13.1
			c-0.6,1.8-1.2,3.5-1.9,5.2c-1.8,4.3-4.2,8.3-6.9,11.9c-1.3,1.8-2.7,3.5-4.3,5c-2.8,2.9-5.8,5.5-9.2,7.8c-1,0.7-2.1,1.4-3.2,2
			c-3.4,2-6.9,3.6-10.7,4.8c-1.3,0.4-2.6,0.8-4,1.1c-4,1-8.2,1.6-12.5,1.6c-0.8,0-1.6,0-2.4,0c-1,0-2-0.1-2.9-0.2
			c-6-0.5-11.7-2-17.1-4.3c-0.6-0.3-1.3-0.6-1.9-0.9c-6.5-3.1-12.5-7.6-17.3-12.9c-4.4-4.8-8-10.5-10.6-16.7
			c-0.1-0.1-0.1-0.3-0.2-0.4c-1.9-4.7-3.3-9.7-3.9-15c-0.2-1.6-0.3-3.3-0.4-5c-4.5,0.6-12.5,1.7-20.9,2.9c8.4-1.2,16.4-2.2,20.9-2.9
			c0-0.5-0.1-1.1-0.1-1.6c0-3.5,0.2-6.9,0.8-10.2c0.1-0.5,0.1-0.9,0.2-1.4c1.3-6.8,3.7-13.1,7.1-18.8c0.3-0.6,0.7-1.1,1-1.6l0.1,0
			c1-1.5,2.1-3,3.2-4.5c2.3-3,5-5.7,7.9-8.2l-0.6-0.7l0.6,0.6c3-2.6,6.3-4.8,9.7-6.7l-10.9-26.4C119.1,93.6,112.6,98,106.9,103.2z"
			/>
	</g>
</g>
</svg>
