<svg version="1.1" id="Layer_1" xmlns="http://www.w3.org/2000/svg" xmlns:xlink="http://www.w3.org/1999/xlink" x="0px" y="0px"
	 viewBox="0 0 330 330" enable-background="new 0 0 330 330" xml:space="preserve">
<circle fill="#652D90" cx="165" cy="165" r="165"/>
<path fill="#FFFFFF" d="M272,150.1l-16.8,1.9l-15.8,1.8c-0.4-2.9-1.1-6.1-1.7-9l18.6-5.8l-0.6-2c-1.9-6.7-4.3-13.3-7.4-19.7
	l-1.6-2.8l-14.8,7.7c-0.4-0.6-0.7-1.2-1.1-1.8c-0.2-0.4-0.4-0.7-0.7-1.1c-0.1-0.1-0.1-0.2-0.2-0.2c-4.6-6.6-11-12.2-16.7-17.9l4-5.2
	l9.5-12.3c-0.3-0.2-0.5-0.4-0.8-0.6c-0.9-0.7-1.8-1.4-2.7-2.1c-0.6-0.4-1.2-0.8-1.7-1.3c-0.9-0.6-1.8-1.3-2.7-1.9
	c-0.5-0.3-1-0.7-1.5-1c-1.1-0.7-2.2-1.5-3.4-2.2c-0.1-0.1-0.2-0.1-0.3-0.2c-0.2-0.1-0.3-0.2-0.5-0.3c-3-1.8-5.9-3.5-9-5.1l-7.4,13.6
	l-3.4,5.8c-7.1-3-14.8-5.1-22.7-6l0-2l0.1-4l0.4-20.4c-1.8-0.1-3.6-0.1-5.4-0.1c-7.6,0-15.1,0.8-22.3,2.3v0.3l-3.7,0.9
	c-4.2,1-8.3,2.2-12.4,3.4c-3.6,1.4-7.2,2.9-10.6,4.6l8.2,19.7l1.1,2.7c-6.8,3.7-13.5,8.2-19.1,13.3l-2.5-2.3l-6.6-6.4l-1.6,1.7
	l-1.4,1.6l-1.4,1.7l-0.2,0.2c-0.1,0.1-1.9,2.4-1.9,2.4c-0.1,0.1-1.5,2.1-1.5,2.1l-1.2,1.6l-1.1,1.7l-1.1,1.7l-1,1.6
	c-0.1,0.1-1.1,1.9-1.1,1.9l-0.9,1.5l-1.4,2.8c-0.1,0.1-1.3,2.4-1.3,2.4l1.9,1l5.4,2.9c-1.3,3.1-2.6,6.5-3.7,9.6l-10.9-3.7l-9.8-3
	c-3,7.8-5.1,16-6.2,24.5l11,1.6l6.7,1l4.6,0.6c-0.7,4.4-1,8.9-1,13.5c0,2.1,0.1,4.2,0.2,6.2c-1.8,0.2-3.6,0.5-5.3,0.7
	c-7,1-13.2,1.8-16.5,2.3c1.2,11.8,4.4,23.1,9.1,33.5c0.6,1.2,1.4,2.8,1.4,2.8l10.5-5.4l1.1,2c3.6,6.9,8.2,13.2,13.4,18.7l1.1,1.1
	l1.8,1.8l1.5-1.3l4.6-4.2c7.4,7.4,16.3,14,25.2,19.4c0.7,0.3,1.3,0.6,2,0.9l-5.6,14.5l-1.8,4.5c7.3,3.2,15.1,5.7,23.2,7.3l1.1-4.9
	l3.9-15.7c3.2,0.6,5.8,0.8,9.2,1.2l0.3,21.3c2.1,0.1,4.3,0.2,6.4,0.2c8.7,0,17.2-1,25.3-3l-0.5-2.4l-4.2-19.9
	c7.2-2.3,14-5.6,20.2-9.8l2.3,3.3l0.8,1.1c0.1,0.1,11.6,15.1,11.6,15.1l4.5-3.2c5.5-3.9,10.7-8.2,15.6-12.9l4.4-4.2l-15.6-14.7
	l-3.6-3.4c5.6-7.3,10.1-15.6,13.2-24.6l5.5,1.1l11.3,2.3c0.1-0.5,0.2-0.9,0.3-1.4c0-0.1,0-0.2,0.1-0.3c0.4-1.7,0.7-3.4,1-5.1
	c0.1-0.5,0.2-1,0.3-1.5c0.2-1.3,0.5-2.6,0.7-3.9c0.1-0.9,0.2-1.7,0.4-2.6c0.1-0.6,0.1-1.1,0.2-1.7c0.1-0.7,0.2-1.5,0.3-2.2
	c0.1-0.9,0.2-1.8,0.3-2.8c0-0.3,0.1-0.6,0.1-1c0.1-0.8,0.1-1.6,0.2-2.5l12.4,0.6c0.3-3.2,0.4-6.4,0.4-9.7
	C273,159.9,272.6,154.9,272,150.1z M167.5,224.5c-0.4,0-0.7,0.1-1.1,0.1c-1.1,0.1-2.3,0.1-3.5,0.1c-0.2,0-0.4,0-0.7,0
	c-0.4,0-0.7,0-1.1,0c-0.8,0-1.5-0.1-2.3-0.1c-30-2.1-53.7-27-53.7-57.5c0-18,8.3-34.1,21.3-44.7l0,0l0,0c9.9-8.1,22.6-13,36.4-13
	c31.8,0,57.7,25.8,57.7,57.7C220.7,197.3,197.3,222.2,167.5,224.5z"/>
</svg>
