<?xml version="1.0" encoding="UTF-8" standalone="no"?>
<svg width="331px" height="331px" viewBox="0 0 331 331" version="1.1" xmlns="http://www.w3.org/2000/svg" xmlns:xlink="http://www.w3.org/1999/xlink" xmlns:sketch="http://www.bohemiancoding.com/sketch/ns">
    <title>Bitcoin</title>
    <description>Created with Sketch (http://www.bohemiancoding.com/sketch)</description>
    <defs></defs>
    <g id="Page-1" stroke="none" stroke-width="1" fill="none" fill-rule="evenodd" sketch:type="MSPage">
        <g id="Imported-Layers" sketch:type="MSLayerGroup" transform="translate(1.000000, 1.000000)">
            <path d="M329.175,164.503 C329.175,255.425 255.469,329.131 164.547,329.131 C73.626,329.131 -0.081,255.425 -0.081,164.503 C-0.081,73.582 73.626,-0.124 164.547,-0.124 C255.469,-0.124 329.175,73.582 329.175,164.503" id="Fill-1" fill="#F8921A" sketch:type="MSShapeGroup"></path>
            <path d="M294.223,164.505 C294.223,236.118 236.165,294.179 164.549,294.179 C92.932,294.179 34.872,236.118 34.872,164.505 C34.872,92.885 92.932,34.828 164.549,34.828 C236.165,34.828 294.223,92.885 294.223,164.505" id="Fill-2" fill="#F8921A" sketch:type="MSShapeGroup"></path>
            <path d="M213.735,171.829 C225.915,169.284 235.218,161.512 237.99,145.103 C241.814,122.692 224.924,110.243 201.659,101.685 L209.878,71.392 L191.42,66.382 L183.41,95.88 C178.554,94.562 173.574,93.312 168.617,92.074 L176.67,62.381 L158.223,57.375 L149.998,87.657 C145.979,86.655 142.032,85.672 138.197,84.631 L138.223,84.537 L112.762,77.617 L107.42,97.313 C107.42,97.313 121.12,100.754 120.829,100.943 C128.305,102.979 129.57,107.978 129.251,111.907 L119.891,146.428 C120.405,146.567 121.07,146.767 121.811,147.082 C121.188,146.913 120.53,146.734 119.857,146.551 L106.733,194.906 C105.772,197.169 103.363,200.546 98.134,199.133 C98.316,199.404 84.706,195.489 84.706,195.489 L75.066,216.514 L99.086,223.033 C103.562,224.254 107.942,225.519 112.24,226.72 L103.94,257.371 L122.383,262.38 L130.607,232.055 C135.649,233.541 140.538,234.915 145.32,236.207 L137.126,266.385 L155.582,271.39 L163.892,240.806 C195.415,247.45 219.255,245.532 229.864,217.149 C238.409,194.294 230.21,180.835 213.735,171.829 L213.735,171.829 Z M163.168,113.87 C173.589,116.698 207.233,122.271 201.337,144.003 C195.679,164.837 163.603,153.516 153.175,150.686 L163.168,113.87 L163.168,113.87 Z M137.104,209.872 L148.129,169.276 C160.646,172.673 200.856,179.726 194.376,203.614 C188.165,226.519 149.63,213.259 137.104,209.872 L137.104,209.872 Z" id="Fill-3" fill="#FFFFFF" sketch:type="MSShapeGroup"></path>
        </g>
    </g>
</svg>