<?xml version="1.0" encoding="utf-8"?>
<!-- Generator: Adobe Illustrator 18.1.0, SVG Export Plug-In . SVG Version: 6.00 Build 0)  -->
<!DOCTYPE svg PUBLIC "-//W3C//DTD SVG 1.1//EN" "http://www.w3.org/Graphics/SVG/1.1/DTD/svg11.dtd">
<svg version="1.1" id="Layer_1" xmlns:sketch="http://www.bohemiancoding.com/sketch/ns"
	 xmlns="http://www.w3.org/2000/svg" xmlns:xlink="http://www.w3.org/1999/xlink" x="0px" y="0px" viewBox="38 -38 331 331"
	 enable-background="new 38 -38 331 331" xml:space="preserve">
<title>Bitcoin</title>
<description>Created with Sketch (http://www.bohemiancoding.com/sketch)</description>
<path id="Fill-1" sketch:type="MSShapeGroup" fill="#F2AD79" d="M368.2,127.5c0,90.9-73.7,164.6-164.6,164.6
	c-90.9,0-164.6-73.7-164.6-164.6c0-90.9,73.7-164.6,164.6-164.6C294.5-37.1,368.2,36.6,368.2,127.5"/>
<path id="Fill-3" sketch:type="MSShapeGroup" fill="#FFFFFF" d="M252.6,134.8c12.1-2.5,21.4-10.3,24.2-26.7
	c3.8-22.4-13-34.9-36.2-43.4l8.2-30.3l-18.4-5l-8,29.5c-4.8-1.3-9.8-2.6-14.8-3.8l8-29.7l-18.4-5L189,50.7c-4-1-7.9-2-11.8-3l0-0.1
	l-25.4-6.9l-5.3,19.7c0,0,13.7,3.4,13.4,3.6c7.5,2,8.7,7,8.4,11l-9.3,34.5c0.5,0.1,1.2,0.3,1.9,0.7c-0.6-0.2-1.3-0.3-1.9-0.5
	l-13.1,48.4c-1,2.3-3.4,5.6-8.6,4.2c0.2,0.3-13.4-3.6-13.4-3.6l-9.6,21l24,6.5c4.5,1.2,8.8,2.5,13.1,3.7l-8.3,30.7l18.4,5l8.2-30.3
	c5,1.5,9.9,2.9,14.7,4.2l-8.2,30.2l18.4,5l8.3-30.6c31.4,6.6,55.2,4.7,65.8-23.7C277.2,157.3,269,143.8,252.6,134.8L252.6,134.8z
	 M202.1,76.9c10.4,2.8,43.9,8.4,38.1,30.1c-5.6,20.8-37.6,9.5-48,6.7L202.1,76.9L202.1,76.9z M176.2,172.9l11-40.6
	c12.5,3.4,52.6,10.4,46.1,34.3C227.1,189.5,188.7,176.3,176.2,172.9L176.2,172.9z"/>
</svg>
