<svg version="1.1" id="Layer_1" xmlns:sketch="http://www.bohemiancoding.com/sketch/ns"
	 xmlns="http://www.w3.org/2000/svg" xmlns:xlink="http://www.w3.org/1999/xlink" x="0px" y="0px" viewBox="1 0 331 331"
	 enable-background="new 1 0 331 331" xml:space="preserve">
<path id="Fill-1" sketch:type="MSShapeGroup" fill="#F8921A" d="M331.2,165.5c0,90.9-73.7,164.6-164.6,164.6
	c-90.9,0-164.6-73.7-164.6-164.6C1.9,74.6,75.6,0.9,166.5,0.9C257.5,0.9,331.2,74.6,331.2,165.5"/>
<path id="Fill-3" sketch:type="MSShapeGroup" fill="#FFFFFF" d="M215.7,172.8c12.2-2.5,21.5-10.3,24.3-26.7
	c3.8-22.4-13.1-34.9-36.3-43.4l8.2-30.3l-18.5-5l-8,29.5c-4.9-1.3-9.8-2.6-14.8-3.8l8.1-29.7l-18.4-5L152,88.7c-4-1-8-2-11.8-3
	l0-0.1l-25.5-6.9l-5.3,19.7c0,0,13.7,3.4,13.4,3.6c7.5,2,8.7,7,8.4,11l-9.4,34.5c0.5,0.1,1.2,0.3,1.9,0.7c-0.6-0.2-1.3-0.3-2-0.5
	l-13.1,48.4c-1,2.3-3.4,5.6-8.6,4.2c0.2,0.3-13.4-3.6-13.4-3.6l-9.6,21l24,6.5c4.5,1.2,8.9,2.5,13.2,3.7l-8.3,30.7l18.4,5l8.2-30.3
	c5,1.5,9.9,2.9,14.7,4.2l-8.2,30.2l18.5,5l8.3-30.6c31.5,6.6,55.4,4.7,66-23.7C240.4,195.3,232.2,181.8,215.7,172.8L215.7,172.8z
	 M165.2,114.9c10.4,2.8,44.1,8.4,38.2,30.1c-5.7,20.8-37.7,9.5-48.2,6.7L165.2,114.9L165.2,114.9z M139.1,210.9l11-40.6
	c12.5,3.4,52.7,10.4,46.2,34.3C190.2,227.5,151.6,214.3,139.1,210.9L139.1,210.9z"/>
</svg>
