<svg version="1.1" xmlns="http://www.w3.org/2000/svg" xmlns:xlink="http://www.w3.org/1999/xlink" x="0px" y="0px" width="952.3px"
	 height="246.1px" viewBox="0 0 952.3 246.1" enable-background="new 0 0 952.3 246.1" xml:space="preserve">
<g id="Layer_2">
	<g>
		<g>
			<polygon fill="none" stroke="#59218C" stroke-linecap="round" stroke-linejoin="round" stroke-miterlimit="10" points="147,205 
				156.8,208.7 166.8,205 156.9,201 			"/>
			
				<line fill="none" stroke="#59218C" stroke-linecap="round" stroke-linejoin="round" stroke-miterlimit="10" x1="156.8" y1="208.7" x2="156.8" y2="222"/>
			<polyline fill="none" stroke="#59218C" stroke-linecap="round" stroke-linejoin="round" stroke-miterlimit="10" points="
				239.8,193 166.8,205 166.8,218.2 156.9,222.3 147,218.2 147,205 61.8,182 			"/>
		</g>
	</g>
	<g>
		<g>
			<polygon fill="none" stroke="#59218C" stroke-linecap="round" stroke-linejoin="round" stroke-miterlimit="10" points="42,168.8 
				51.8,172.5 61.8,168.8 51.9,164.8 			"/>
			
				<line fill="none" stroke="#59218C" stroke-linecap="round" stroke-linejoin="round" stroke-miterlimit="10" x1="51.8" y1="172.5" x2="51.8" y2="185.8"/>
			<polyline fill="none" stroke="#59218C" stroke-linecap="round" stroke-linejoin="round" stroke-miterlimit="10" points="0,127.6 
				42,168.8 42,182 51.9,186 61.8,182 61.8,168.8 147,135.5 			"/>
		</g>
	</g>
	<g>
		<g>
			<polygon fill="none" stroke="#59218C" stroke-linecap="round" stroke-linejoin="round" stroke-miterlimit="10" points="42,86 
				51.8,89.7 61.8,86 51.9,82 			"/>
			
				<line fill="none" stroke="#59218C" stroke-linecap="round" stroke-linejoin="round" stroke-miterlimit="10" x1="51.8" y1="89.7" x2="51.8" y2="103"/>
			<polyline fill="none" stroke="#59218C" stroke-linecap="round" stroke-linejoin="round" stroke-miterlimit="10" points="42,86 
				42,99.2 51.9,103.3 61.8,99.2 61.8,86 			"/>
		</g>
	</g>
	<g>
		<g>
			<polygon fill="none" stroke="#59218C" stroke-linecap="round" stroke-linejoin="round" stroke-miterlimit="10" points="
				147,122.3 156.8,126 166.8,122.3 156.9,118.3 			"/>
			
				<line fill="none" stroke="#59218C" stroke-linecap="round" stroke-linejoin="round" stroke-miterlimit="10" x1="156.8" y1="126" x2="156.8" y2="139.3"/>
			<polyline fill="none" stroke="#59218C" stroke-linecap="round" stroke-linejoin="round" stroke-miterlimit="10" points="
				61.8,99.2 147,122.3 147,135.5 156.9,139.6 166.8,135.5 166.8,122.3 239.8,110.3 			"/>
		</g>
	</g>
	<g>
		<g>
			<polygon fill="none" stroke="#59218C" stroke-linecap="round" stroke-linejoin="round" stroke-miterlimit="10" points="
				239.8,110.3 249.7,114 259.7,110.3 249.8,106.3 			"/>
			
				<line fill="none" stroke="#59218C" stroke-linecap="round" stroke-linejoin="round" stroke-miterlimit="10" x1="249.7" y1="114" x2="249.7" y2="127.3"/>
			<polyline fill="none" stroke="#59218C" stroke-linecap="round" stroke-linejoin="round" stroke-miterlimit="10" points="
				239.8,110.3 239.8,123.5 249.8,127.6 259.7,123.5 259.7,110.3 			"/>
		</g>
	</g>
	<g>
		<g>
			<polygon fill="none" stroke="#59218C" stroke-linecap="round" stroke-linejoin="round" stroke-miterlimit="10" points="
				339.3,146.1 349.2,149.8 359.2,146.1 349.3,142.1 			"/>
			
				<line fill="none" stroke="#59218C" stroke-linecap="round" stroke-linejoin="round" stroke-miterlimit="10" x1="349.2" y1="149.8" x2="349.2" y2="163.1"/>
			<polyline fill="none" stroke="#59218C" stroke-linecap="round" stroke-linejoin="round" stroke-miterlimit="10" points="
				259.7,123.5 339.3,146.1 339.3,159.3 349.3,163.4 359.2,159.3 359.2,146.1 433.1,109.9 			"/>
		</g>
	</g>
	<g>
		<g>
			<polygon fill="none" stroke="#59218C" stroke-linecap="round" stroke-linejoin="round" stroke-miterlimit="10" points="
				433.2,182.3 443,186 453,182.3 443.1,178.3 			"/>
			
				<line fill="none" stroke="#59218C" stroke-linecap="round" stroke-linejoin="round" stroke-miterlimit="10" x1="443" y1="186" x2="443" y2="199.3"/>
			<polyline fill="none" stroke="#59218C" stroke-linecap="round" stroke-linejoin="round" stroke-miterlimit="10" points="
				359.2,159.3 433.2,182.3 433.2,195.5 443.1,199.6 453,195.5 453,182.3 520.1,132.9 			"/>
		</g>
	</g>
	<g>
		<g>
			<polygon fill="none" stroke="#59218C" stroke-linecap="round" stroke-linejoin="round" stroke-miterlimit="10" points="
				433.1,96.8 442.9,100.4 452.9,96.8 443,92.8 			"/>
			
				<line fill="none" stroke="#59218C" stroke-linecap="round" stroke-linejoin="round" stroke-miterlimit="10" x1="442.9" y1="100.4" x2="442.9" y2="113.8"/>
			<polyline fill="none" stroke="#59218C" stroke-linecap="round" stroke-linejoin="round" stroke-miterlimit="10" points="
				433.1,96.8 433.1,109.9 443,114 452.9,109.9 452.9,96.8 			"/>
		</g>
	</g>
	<g>
		<g>
			<polygon fill="none" stroke="#59218C" stroke-linecap="round" stroke-linejoin="round" stroke-miterlimit="10" points="
				339.3,228.8 349.1,232.5 359.1,228.8 349.2,224.8 			"/>
			
				<line fill="none" stroke="#59218C" stroke-linecap="round" stroke-linejoin="round" stroke-miterlimit="10" x1="349.1" y1="232.5" x2="349.1" y2="245.8"/>
			<polyline fill="none" stroke="#59218C" stroke-linecap="round" stroke-linejoin="round" stroke-miterlimit="10" points="
				259.7,206.1 339.3,228.8 339.3,242 349.2,246.1 359.1,242 359.1,228.8 433.2,195.5 			"/>
		</g>
	</g>
	<g>
		<g>
			<polygon fill="none" stroke="#59218C" stroke-linecap="round" stroke-linejoin="round" stroke-miterlimit="10" points="
				239.8,193 249.7,196.6 259.7,193 249.8,189 			"/>
			
				<line fill="none" stroke="#59218C" stroke-linecap="round" stroke-linejoin="round" stroke-miterlimit="10" x1="249.7" y1="196.6" x2="249.7" y2="210"/>
			<polyline fill="none" stroke="#59218C" stroke-linecap="round" stroke-linejoin="round" stroke-miterlimit="10" points="
				166.8,135.5 239.8,193 239.8,206.1 249.8,210.2 259.7,206.1 259.7,193 339.3,159.3 			"/>
		</g>
	</g>
	<g>
		<g>
			<polygon fill="none" stroke="#59218C" stroke-linecap="round" stroke-linejoin="round" stroke-miterlimit="10" points="
				520.2,205.3 530,209 540,205.3 530.1,201.3 			"/>
			
				<line fill="none" stroke="#59218C" stroke-linecap="round" stroke-linejoin="round" stroke-miterlimit="10" x1="530" y1="209" x2="530" y2="222.3"/>
			<polyline fill="none" stroke="#59218C" stroke-linecap="round" stroke-linejoin="round" stroke-miterlimit="10" points="
				520.2,205.3 520.2,218.5 530.1,222.6 540,218.5 540,205.3 638.2,149.9 			"/>
		</g>
	</g>
	<g>
		<g>
			<polygon fill="none" stroke="#59218C" stroke-linecap="round" stroke-linejoin="round" stroke-miterlimit="10" points="
				520.1,119.8 529.9,123.4 539.9,119.8 530,115.8 			"/>
			
				<line fill="none" stroke="#59218C" stroke-linecap="round" stroke-linejoin="round" stroke-miterlimit="10" x1="529.9" y1="123.4" x2="529.9" y2="136.8"/>
			<polyline fill="none" stroke="#59218C" stroke-linecap="round" stroke-linejoin="round" stroke-miterlimit="10" points="
				520.1,119.8 520.1,132.9 530,137 539.9,132.9 539.9,119.8 			"/>
		</g>
	</g>
	<g>
		<g>
			<polygon fill="none" stroke="#59218C" stroke-linecap="round" stroke-linejoin="round" stroke-miterlimit="10" points="
				638.2,136.8 648.1,140.4 658.1,136.8 648.2,132.8 			"/>
			
				<line fill="none" stroke="#59218C" stroke-linecap="round" stroke-linejoin="round" stroke-miterlimit="10" x1="648.1" y1="140.4" x2="648.1" y2="153.8"/>
			<polyline fill="none" stroke="#59218C" stroke-linecap="round" stroke-linejoin="round" stroke-miterlimit="10" points="
				706.3,100.6 658.1,136.8 658.1,149.9 648.2,154 638.2,149.9 638.2,136.8 539.9,132.9 539.9,119.8 638.2,64.3 			"/>
		</g>
	</g>
	<g>
		<g>
			<polygon fill="none" stroke="#59218C" stroke-linecap="round" stroke-linejoin="round" stroke-miterlimit="10" points="
				638.2,51.2 648,54.8 658,51.2 648.1,47.2 			"/>
			
				<line fill="none" stroke="#59218C" stroke-linecap="round" stroke-linejoin="round" stroke-miterlimit="10" x1="648" y1="54.8" x2="648" y2="68.2"/>
			<polyline fill="none" stroke="#59218C" stroke-linecap="round" stroke-linejoin="round" stroke-miterlimit="10" points="
				638.2,51.2 638.2,64.3 648.1,68.4 658,64.3 658,51.2 			"/>
		</g>
	</g>
	<g>
		<g>
			<polygon fill="none" stroke="#59218C" stroke-linecap="round" stroke-linejoin="round" stroke-miterlimit="10" points="
				696.5,168.9 706.3,172.6 716.3,168.9 706.4,164.9 			"/>
			
				<line fill="none" stroke="#59218C" stroke-linecap="round" stroke-linejoin="round" stroke-miterlimit="10" x1="706.3" y1="172.6" x2="706.3" y2="185.9"/>
			<polyline fill="none" stroke="#59218C" stroke-linecap="round" stroke-linejoin="round" stroke-miterlimit="10" points="
				658.1,149.9 696.5,168.9 696.5,182.1 706.4,186.2 716.3,182.1 716.3,168.9 804,106.8 			"/>
		</g>
	</g>
	<g>
		<g>
			<polygon fill="none" stroke="#59218C" stroke-linecap="round" stroke-linejoin="round" stroke-miterlimit="10" points="
				696.4,83.3 706.2,87 716.2,83.3 706.3,79.3 			"/>
			
				<line fill="none" stroke="#59218C" stroke-linecap="round" stroke-linejoin="round" stroke-miterlimit="10" x1="706.2" y1="87" x2="706.2" y2="100.3"/>
			<polyline fill="none" stroke="#59218C" stroke-linecap="round" stroke-linejoin="round" stroke-miterlimit="10" points="
				803.9,21.2 716.2,83.3 716.2,96.5 706.3,100.6 696.4,96.5 696.4,83.3 658,64.3 			"/>
		</g>
	</g>
	<g>
		<g>
			<polygon fill="none" stroke="#59218C" stroke-linecap="round" stroke-linejoin="round" stroke-miterlimit="10" points="794,89.6 
				803.9,93.2 813.9,89.6 804,85.6 			"/>
			
				<line fill="none" stroke="#59218C" stroke-linecap="round" stroke-linejoin="round" stroke-miterlimit="10" x1="803.9" y1="93.2" x2="803.9" y2="106.6"/>
			<polyline fill="none" stroke="#59218C" stroke-linecap="round" stroke-linejoin="round" stroke-miterlimit="10" points="
				794,89.6 794,102.7 804,106.8 813.9,102.7 813.9,89.6 			"/>
		</g>
	</g>
	<g>
		<g>
			<polygon fill="none" stroke="#59218C" stroke-linecap="round" stroke-linejoin="round" stroke-miterlimit="10" points="794,4 
				803.8,7.7 813.8,4 803.9,0 			"/>
			
				<line fill="none" stroke="#59218C" stroke-linecap="round" stroke-linejoin="round" stroke-miterlimit="10" x1="803.8" y1="7.7" x2="803.8" y2="21"/>
			<polyline fill="none" stroke="#59218C" stroke-linecap="round" stroke-linejoin="round" stroke-miterlimit="10" points="794,4 
				794,17.2 803.9,21.2 813.8,17.2 813.8,4 			"/>
		</g>
	</g>
	<g>
		<g>
			<polygon fill="none" stroke="#59218C" stroke-linecap="round" stroke-linejoin="round" stroke-miterlimit="10" points="
				862.6,121.7 872.5,125.4 882.5,121.7 872.6,117.7 			"/>
			
				<line fill="none" stroke="#59218C" stroke-linecap="round" stroke-linejoin="round" stroke-miterlimit="10" x1="872.5" y1="125.4" x2="872.5" y2="138.7"/>
			<polyline fill="none" stroke="#59218C" stroke-linecap="round" stroke-linejoin="round" stroke-miterlimit="10" points="
				813.9,102.7 862.6,121.7 862.6,134.9 872.6,139 882.5,134.9 882.5,121.7 928.2,102.7 			"/>
		</g>
	</g>
	<g>
		<g>
			<polygon fill="none" stroke="#59218C" stroke-linecap="round" stroke-linejoin="round" stroke-miterlimit="10" points="
				862.6,36.2 872.4,39.8 882.4,36.2 872.5,32.2 			"/>
			
				<line fill="none" stroke="#59218C" stroke-linecap="round" stroke-linejoin="round" stroke-miterlimit="10" x1="872.4" y1="39.8" x2="872.4" y2="53.2"/>
			<polyline fill="none" stroke="#59218C" stroke-linecap="round" stroke-linejoin="round" stroke-miterlimit="10" points="
				813.8,17.2 862.6,36.2 862.6,49.3 872.5,53.4 882.4,49.3 882.4,36.2 928.1,17.2 			"/>
		</g>
	</g>
	<g>
		<g>
			<polygon fill="none" stroke="#59218C" stroke-linecap="round" stroke-linejoin="round" stroke-miterlimit="10" points="
				928.2,89.6 938.1,93.2 948.1,89.6 938.1,85.6 			"/>
			
				<line fill="none" stroke="#59218C" stroke-linecap="round" stroke-linejoin="round" stroke-miterlimit="10" x1="938.1" y1="93.2" x2="938.1" y2="106.6"/>
			<polyline fill="none" stroke="#59218C" stroke-linecap="round" stroke-linejoin="round" stroke-miterlimit="10" points="
				928.2,89.6 928.2,102.7 938.1,106.8 948.1,102.7 948.1,89.6 			"/>
		</g>
	</g>
	<g>
		<g>
			<polygon fill="none" stroke="#59218C" stroke-linecap="round" stroke-linejoin="round" stroke-miterlimit="10" points="928.1,4 
				938,7.7 948,4 938.1,0 			"/>
			
				<line fill="none" stroke="#59218C" stroke-linecap="round" stroke-linejoin="round" stroke-miterlimit="10" x1="938" y1="7.7" x2="938" y2="21"/>
			<polyline fill="none" stroke="#59218C" stroke-linecap="round" stroke-linejoin="round" stroke-miterlimit="10" points="928.1,4 
				928.1,17.2 938.1,21.2 948,17.2 948,4 			"/>
		</g>
	</g>
	
		<line fill="none" stroke="#59218C" stroke-linecap="round" stroke-linejoin="round" stroke-miterlimit="10" x1="0" y1="122.2" x2="42" y2="99.2"/>
	
		<line fill="none" stroke="#59218C" stroke-linecap="round" stroke-linejoin="round" stroke-miterlimit="10" x1="0" y1="205" x2="42" y2="182"/>
	
		<line fill="none" stroke="#59218C" stroke-linecap="round" stroke-linejoin="round" stroke-miterlimit="10" x1="249.8" y1="127.6" x2="249.8" y2="189"/>
	
		<line fill="none" stroke="#59218C" stroke-linecap="round" stroke-linejoin="round" stroke-miterlimit="10" x1="349.3" y1="163.4" x2="349.2" y2="224.8"/>
	
		<line fill="none" stroke="#59218C" stroke-linecap="round" stroke-linejoin="round" stroke-miterlimit="10" x1="452.9" y1="109.9" x2="520.1" y2="132.9"/>
	
		<line fill="none" stroke="#59218C" stroke-linecap="round" stroke-linejoin="round" stroke-miterlimit="10" x1="520.2" y1="218.5" x2="453" y2="195.5"/>
	
		<line fill="none" stroke="#59218C" stroke-linecap="round" stroke-linejoin="round" stroke-miterlimit="10" x1="804" y1="85.6" x2="872.5" y2="53.4"/>
</g>
</svg>
