<?xml version="1.0" encoding="UTF-8" standalone="no"?>
<svg xmlns:sketch="http://www.bohemiancoding.com/sketch/ns" xmlns:dc="http://purl.org/dc/elements/1.1/" xmlns:cc="http://creativecommons.org/ns#" xmlns:rdf="http://www.w3.org/1999/02/22-rdf-syntax-ns#" xmlns:svg="http://www.w3.org/2000/svg" xmlns="http://www.w3.org/2000/svg" xmlns:sodipodi="http://sodipodi.sourceforge.net/DTD/sodipodi-0.dtd" xmlns:inkscape="http://www.inkscape.org/namespaces/inkscape" version="1.1" id="Layer_1" x="0px" y="0px" viewBox="1 0 331 331" enable-background="new 1 0 331 331" xml:space="preserve" sodipodi:docname="dash.svg" inkscape:version="0.92.1 r15371"><metadata id="metadata3687"><rdf:RDF><cc:Work rdf:about=""><dc:format>image/svg+xml</dc:format><dc:type rdf:resource="http://purl.org/dc/dcmitype/StillImage"/></cc:Work></rdf:RDF></metadata><defs id="defs3685"/><sodipodi:namedview pagecolor="#ffffff" bordercolor="#666666" borderopacity="1" objecttolerance="10" gridtolerance="10" guidetolerance="10" inkscape:pageopacity="0" inkscape:pageshadow="2" inkscape:window-width="1920" inkscape:window-height="1027" id="namedview3683" showgrid="false" inkscape:measure-start="287.274,213.515" inkscape:measure-end="322.513,214.494" inkscape:zoom="0.64803625" inkscape:cx="-561.64831" inkscape:cy="465.16733" inkscape:window-x="1912" inkscape:window-y="103" inkscape:window-maximized="1" inkscape:current-layer="Layer_1"/><path id="Fill-1" sketch:type="MSShapeGroup" d="m 331.2,165.5 c 0,90.9 -73.7,164.6 -164.6,164.6 C 75.7,330.1 2,256.4 2,165.5 1.9,74.6 75.6,0.9 166.5,0.9 c 91,0 164.7,73.7 164.7,164.6" inkscape:connector-curvature="0" style="display:inline;opacity:1;fill:#1c75bc;fill-opacity:1" inkscape:label="Fill-1"/><path style="opacity:1;fill:#faffff;fill-opacity:1;stroke-width:1.20966339" inkscape:connector-curvature="0" id="D" class="st0" d="m 276.11918,119.98268 c -0.77364,-3.72426 -0.9762,-5.16843 -2.76832,-8.40847 -1.88873,-3.14724 -4.13704,-5.4068 -7.95536,-7.6136 -2.91251,-1.84201 -8.48594,-3.29474 -12.49761,-3.11028 l -148.86056,0.10622 -11.021562,32.94191 135.174672,-0.28369 -21.46959,65.46427 -135.174664,0.28368 -10.203205,32.55614 151.704489,0.0907 c 3.98167,-0.19051 9.94461,-2.07014 13.95955,-4.03338 4.61985,-2.33698 8.14293,-4.68365 12.2133,-8.11718 3.9534,-3.19106 7.53254,-7.88027 10.61816,-11.89953 2.25808,-4.14787 4.50467,-8.61282 5.6997,-12.97147 l 19.83141,-61.33899 c 0.90139,-3.78059 1.63799,-8.38441 0.74959,-13.66633 z" sodipodi:nodetypes="ccccccccccccccccc"/><path style="fill:#ffffff;fill-opacity:1;stroke-width:1.21753824;opacity:1" inkscape:connector-curvature="0" id="_-" class="st0" d="M 146.70731,151.34435 H 66.782581 L 56.053628,181.71783 H 136.8222 Z"/></svg>