<?xml version="1.0" encoding="UTF-8"?>
<svg version="1.1" id="Layer_1" xmlns="http://www.w3.org/2000/svg" xmlns:xlink="http://www.w3.org/1999/xlink" x="0px" y="0px" viewBox="0 0 334.5 336" style="enable-background:new 0 0 334.5 336;" xml:space="preserve">
<style type="text/css">
	.st0{fill:#008CE3;}
	.st1{fill:#FFFFFF;}
</style>
<g>
	<path class="st0" d="M167.2,323.3c85.8,0,155.3-69.5,155.3-155.3c0-85.8-69.5-155.3-155.3-155.3S12,82.2,12,168   C12,253.8,81.5,323.3,167.2,323.3"/>
	<path class="st1" d="M190.9,100h-61l-5,28.2l55,0.1c27.1,0,35.1,9.8,34.9,26.1c-0.1,8.4-3.7,22.5-5.3,27.1   c-4.2,12.2-12.7,26.2-44.9,26.1l-53.5,0l-5.1,28.3h60.8c21.4,0,30.6-2.5,40.2-7c21.4-9.9,34.2-31,39.3-58.6   C254,129.2,244.5,100,190.9,100"/>
	<path class="st1" d="M103.7,153.8c-16,0-18.3,10.4-19.8,16.7c-2,8.2-2.6,11.6-2.6,11.6h62.4c16,0,18.3-10.4,19.8-16.7   c2-8.2,2.6-11.6,2.6-11.6H103.7z"/>
</g>
</svg>
