<?xml version="1.0" encoding="UTF-8" standalone="no"?>
<svg width="331px" height="330px" viewBox="0 0 331 330" version="1.1" xmlns="http://www.w3.org/2000/svg" xmlns:xlink="http://www.w3.org/1999/xlink" xmlns:sketch="http://www.bohemiancoding.com/sketch/ns">
    <title>Dogecoin</title>
    <description>Created with Sketch (http://www.bohemiancoding.com/sketch)</description>
    <defs></defs>
    <g id="Page-1" stroke="none" stroke-width="1" fill="none" fill-rule="evenodd" sketch:type="MSPage">
        <g id="Imported-Layers" sketch:type="MSLayerGroup" transform="translate(1.000000, 1.000000)">
            <path d="M329.083,164.228 C329.083,255.149 255.377,328.855 164.456,328.855 C73.534,328.855 -0.172,255.149 -0.172,164.228 C-0.172,73.306 73.534,-0.4 164.456,-0.4 C255.377,-0.4 329.083,73.306 329.083,164.228" id="Fill-1" fill="#F9BF1A" sketch:type="MSShapeGroup"></path>
            <path d="M294.131,164.229 C294.131,235.842 236.074,293.903 164.457,293.903 C92.841,293.903 34.78,235.842 34.78,164.229 C34.78,92.61 92.841,34.552 164.457,34.552 C236.074,34.552 294.131,92.61 294.131,164.229" id="Fill-2" fill="#F9BF1A" sketch:type="MSShapeGroup"></path>
            <path d="M83.169,74.294 L197.849,74.294 C197.849,74.294 238.082,82.085 254.362,124.105 C254.362,124.105 277.677,179.345 243.133,228.362 C243.133,228.361 221.609,255.385 194.721,255.385 L83.169,255.385 L83.169,212.645 L106.444,212.645 L106.444,117.099 L83.61,117.099 L83.169,74.294 L83.169,74.294 Z" id="Fill-3" fill="#FFFFFF" sketch:type="MSShapeGroup"></path>
            <path d="M83.169,74.294 L197.849,74.294 C197.849,74.294 238.082,82.085 254.362,124.105 C254.362,124.105 277.677,179.345 243.133,228.362 C243.133,228.361 221.609,255.385 194.721,255.385 L83.169,255.385 L83.169,212.645 L106.444,212.645 L106.444,117.099 L83.61,117.099 L83.169,74.294 L83.169,74.294 Z" id="Stroke-4" stroke="#F9BF1A" sketch:type="MSShapeGroup"></path>
            <path d="M157.566,117.221 L182.031,117.221 C182.031,117.22 193.381,119.633 201.26,141.961 C201.26,141.961 211.768,174.063 195.308,199.559 C195.308,199.559 186.584,212.178 177.024,212.178 L157.985,212.178 L157.566,117.221" id="Fill-5" fill="#F9BF1A" sketch:type="MSShapeGroup"></path>
        </g>
    </g>
</svg>