<?xml version="1.0" encoding="utf-8"?>
<!-- Generator: Adobe Illustrator 18.1.0, SVG Export Plug-In . SVG Version: 6.00 Build 0)  -->
<!DOCTYPE svg PUBLIC "-//W3C//DTD SVG 1.1//EN" "http://www.w3.org/Graphics/SVG/1.1/DTD/svg11.dtd">
<svg version="1.1"
	 id="svg2" xmlns:dc="http://purl.org/dc/elements/1.1/" xmlns:cc="http://creativecommons.org/ns#" xmlns:rdf="http://www.w3.org/1999/02/22-rdf-syntax-ns#" xmlns:svg="http://www.w3.org/2000/svg" xmlns:sodipodi="http://sodipodi.sourceforge.net/DTD/sodipodi-0.dtd" xmlns:inkscape="http://www.inkscape.org/namespaces/inkscape" inkscape:export-ydpi="81.849998" inkscape:export-xdpi="81.849998" inkscape:export-filename="/home/mriou/Dropbox/blockcypher/design/logo_name.png" sodipodi:docname="logo_name.svg" inkscape:version="0.48.4 r9939"
	 xmlns="http://www.w3.org/2000/svg" xmlns:xlink="http://www.w3.org/1999/xlink" x="0px" y="0px" viewBox="97.7 133.1 259.3 50"
	 enable-background="new 97.7 133.1 259.3 50" xml:space="preserve">
<sodipodi:namedview  fit-margin-left="0" fit-margin-top="0" showborder="false" showgrid="false" inkscape:cy="66.719641" inkscape:cx="292.13054" inkscape:zoom="1.4" borderopacity="1.0" bordercolor="#666666" pagecolor="#ffffff" id="base" fit-margin-bottom="0" fit-margin-right="0" inkscape:showpageshadow="false" inkscape:window-maximized="1" inkscape:window-y="24" inkscape:window-x="0" inkscape:window-height="876" inkscape:window-width="1600" inkscape:pageshadow="2" inkscape:pageopacity="0.0" inkscape:document-units="px" inkscape:current-layer="layer1">
	</sodipodi:namedview>
<g>
	<g>
		<g enable-background="new    ">
			<path fill="#59218C" d="M165.8,147.6c4.1,0,6.7,1.9,6.7,5c0,2.3-1.3,3.9-3.5,4.5c2.7,0.5,4.3,2.4,4.3,5.1c0,3.4-2.8,5.5-7.3,5.5
				h-8.9v-20H165.8z M160.4,155.9h5.1c2.1,0,3.4-1,3.4-2.7c0-1.7-1.3-2.6-3.4-2.6h-5.1V155.9z M160.4,164.6h5.1c2.6,0,4.2-1,4.2-2.9
				c0-1.8-1.6-2.8-4.2-2.8h-5.1V164.6z"/>
		</g>
		<g enable-background="new    ">
			<path fill="#0B8ED8" d="M267.5,150.2l-2,2.5c-1.5-1.6-3.5-2.5-5.6-2.5c-4,0-7.2,3.1-7.2,7c0,3.9,3.1,7.1,7.2,7.1
				c2,0,4.1-0.9,5.6-2.4l2,2.2c-2,2-4.9,3.3-7.8,3.3c-5.9,0-10.4-4.4-10.4-10.2c0-5.7,4.6-10.1,10.5-10.1
				C262.7,147.1,265.5,148.3,267.5,150.2z"/>
		</g>
		<g enable-background="new    ">
			<path fill="#59218C" d="M187.3,164.9v2.7h-10.7v-17.8h3v15.1H187.3z"/>
			<path fill="#59218C" d="M207.6,158.7c0,5.1-4.1,9-9.4,9s-9.4-3.9-9.4-9c0-5.1,4.1-9,9.4-9S207.6,153.6,207.6,158.7z M191.8,158.7
				c0,3.5,2.9,6.3,6.4,6.3c3.5,0,6.3-2.8,6.3-6.3s-2.8-6.3-6.3-6.3C194.7,152.4,191.8,155.2,191.8,158.7z"/>
			<path fill="#59218C" d="M224.7,152.5l-1.8,2.2c-1.3-1.4-3.2-2.3-5-2.3c-3.6,0-6.4,2.7-6.4,6.3s2.8,6.3,6.4,6.3
				c1.8,0,3.6-0.8,5-2.1l1.8,2c-1.8,1.8-4.4,2.9-6.9,2.9c-5.2,0-9.3-3.9-9.3-9.1c0-5.1,4.1-8.9,9.4-8.9
				C220.5,149.7,223,150.8,224.7,152.5z"/>
			<path fill="#59218C" d="M233.8,159.7l-3,3.3v4.5h-3v-17.8h3v9.2l8.5-9.2h3.5l-6.9,7.6l7.3,10.2h-3.6L233.8,159.7z"/>
		</g>
		<g enable-background="new    ">
			<path fill="#0B8ED8" d="M279.5,167.3h-3v-5.8l-6.6-12h3l5.1,8.7l5-8.7h3.1l-6.5,11.9V167.3z"/>
			<path fill="#0B8ED8" d="M295.5,149.5c4.5,0,7,2.2,7,6.1c0,4-2.6,6.4-7,6.4h-4.1v5.4h-3v-17.8H295.5z M291.4,159.2h4
				c2.7,0,4.3-1.2,4.3-3.6c0-2.3-1.6-3.5-4.3-3.5h-4V159.2z"/>
			<path fill="#0B8ED8" d="M317.9,167.3v-7.4h-9.4v7.4h-3v-17.8h3v7.7h9.4v-7.7h3v17.8H317.9z"/>
			<path fill="#0B8ED8" d="M328.6,152.2v4.8h8.7v2.7h-8.7v4.9h10v2.7h-13v-17.8h12.7v2.7H328.6z"/>
			<path fill="#0B8ED8" d="M350.3,161.9c-0.3,0-0.5,0-0.8,0h-4.2v5.4h-3v-17.8h7.2c4.6,0,7.2,2.2,7.2,6.1c0,2.8-1.3,4.9-3.7,5.8
				l4,5.9h-3.4L350.3,161.9z M349.5,159.2c2.7,0,4.3-1.2,4.3-3.6c0-2.3-1.6-3.5-4.3-3.5h-4.2v7H349.5z"/>
		</g>
	</g>
	<g id="g3846" transform="matrix(1.25,0,0,-1.25,207.49868,529.932)" inkscape:label="ink_ext_XXXXXX">
		<g id="g3848" transform="scale(0.1,0.1)">
			<g id="g3958" transform="matrix(-0.15172414,-0.94339655,0.98837108,-0.14175064,-3680.5165,2155.2726)">
				<path id="path3872" inkscape:connector-curvature="0" fill="#5E2590" d="M-1397.8,2790.7l-29.6-14.3l-35.2-17l2.2-3.6
					c7.1-12.4,15.8-23.7,26-33.7l2.1-2l3.5-3.2l2.9,2.4l8.9,7.6l18.2,15.4l21.6,18.3C-1385.7,2769.4-1392.8,2779.6-1397.8,2790.7"/>
				<path id="path3874" inkscape:connector-curvature="0" fill="#5E2590" d="M-1144.3,2820.7l-34.7,1.5l-10.1,0.4
					c-0.7-8.2-2.4-16.1-5-23.6c-1.1-3.2-2.4-6.3-3.8-9.4l12.5-2.4l34.1-6.4l12.8-2.4l22-4.2c0.2,0.8,0.5,1.7,0.7,2.5
					c0,0.2,0.1,0.4,0.1,0.6c0.7,3.1,1.4,6.1,2,9.2c0.2,0.9,0.4,1.8,0.5,2.8c0.5,2.4,0.9,4.7,1.3,7.1c0.2,1.5,0.5,3.1,0.7,4.6
					c0.1,1,0.3,2,0.4,3c0.2,1.3,0.4,2.7,0.5,4c0.2,1.6,0.4,3.3,0.6,5c0.1,0.6,0.1,1.2,0.2,1.7c0.1,1.5,0.3,3,0.4,4.4L-1144.3,2820.7
					"/>
				<path id="path3876" inkscape:connector-curvature="0" fill="#0B8ED8" d="M-1368.6,2912.1l-43.4,39.1l-12.7,11.5l-3-3.1l-2.8-2.9
					c0,0-2.7-3-2.7-3c0,0-0.3-0.4-0.3-0.4c-0.2-0.2-3.7-4.3-3.7-4.3c-0.2-0.2-3-3.8-3-3.8l-2.2-2.9c0,0-2.2-3-2.2-3l-2.2-3.1
					c0,0-2-2.9-2-2.9c-0.1-0.2-2.2-3.4-2.2-3.4l-1.7-2.7l-2.8-4.8c-0.1-0.3-2.4-4.3-2.4-4.3l3.6-1.7l19.6-9.8l45.9-18.5
					c1.9,2.8,4,5.5,6.2,8.1c4.6,5.4,9.7,10.3,15.3,14.7L-1368.6,2912.1"/>
				<path id="path3878" inkscape:connector-curvature="0" fill="#5E2590" d="M-1118.5,2885.9c-3.6,12.1-8.4,24-14.3,35.5l-3,5.1
					l-73-35.4c0.3-0.4,0.6-0.7,0.8-1.1c6.2-8.6,11.1-18.2,14.4-28.4l32.4,8l43.8,12.7L-1118.5,2885.9"/>
				<path id="path3880" inkscape:connector-curvature="0" fill="#0B8ED8" d="M-1176,2983c-1.8,1.3-3.5,2.5-5.3,3.7
					c-1.1,0.8-2.2,1.5-3.4,2.3c-1.7,1.2-3.5,2.3-5.3,3.4c-1,0.6-2,1.2-3,1.9c-2.2,1.3-4.3,2.6-6.5,3.9c-0.2,0.1-0.3,0.2-0.5,0.3
					c-0.3,0.2-0.7,0.4-1,0.6c-5.7,3.3-11.5,6.4-17.5,9.2l-14.3-24.4l-8.5-14.6l-6.8-11.6l-16.3-27.8c1.1-0.3,2.1-0.6,3.2-1
					c9.3-3.1,18-7.5,26-12.8c1.4-0.9,2.7-1.9,4-2.8l18.8,22.8l11.8,14.3l7.8,9.4l18.4,22.2C-1175,2982.3-1175.5,2982.7-1176,2983"/>
				<path id="path3882" inkscape:connector-curvature="0" fill="#0B8ED8" d="M-1398.1,2791.4c-3.7,8.5-6.3,17.5-7.6,26.9
					c-0.4,2.9-0.6,5.9-0.8,9c-13.1-1.7-41.7-5.3-65.3-8.3c-13.7-1.7-25.6-3.2-32-4.1c2.4-21.3,8.5-41.6,17.7-60.3
					c1.2-2.2,2.8-5,2.8-5l55.7,26.8l29.6,14.3C-1397.9,2791-1398,2791.2-1398.1,2791.4"/>
				<path id="path3884" inkscape:connector-curvature="0" fill="#5E2590" d="M-1330.3,2990.4l-5.8,36.9l-7.2-1.6
					c-8.1-1.8-16.2-3.9-24.1-6.2c-7-2.4-13.9-5.2-20.6-8.4l15.8-35.5l23.6-52.8c3.2,1.6,6.5,3.1,9.9,4.4c5.5,2.1,11.3,3.9,17.3,5.1
					L-1330.3,2990.4"/>
				<path id="path3886" inkscape:connector-curvature="0" fill="#0B8ED8" d="M-1292.9,3032c-14.8,0-29.3-1.4-43.3-4.1l0.1-0.6
					l5.8-36.9l9-58c2.9,0.6,5.8,1.1,8.7,1.5c4.4,0.6,9,0.9,13.5,1c1.5,0,3,0,4.5-0.1c3.4-0.1,6.7-0.3,10-0.7l1.2,53.8l0.2,7.1
					l0.8,36.7C-1285.8,3031.9-1289.4,3032-1292.9,3032"/>
				<path id="path3888" inkscape:connector-curvature="0" fill="#0B8ED8" d="M-1086.9,2862.3l-32.6-3.5l-30.6-3.3
					c-0.8,5.4-2.1,11.3-3.4,16.7l-8.8-2.7l-31.3-8c0.1-0.4,0.2-0.8,0.4-1.2c2.6-8.8,4.1-18.1,4.2-27.8c0-3.3-0.1-6.6-0.4-9.8
					l40.1-1.8l31.4-1.4l32.1-1.4c0.5,5.7,0.8,11.5,0.8,17.4C-1085,2844.7-1085.7,2853.6-1086.9,2862.3"/>
				<path id="path3890" inkscape:connector-curvature="0" fill="#5E2590" d="M-1443.7,2911c-2.5-5.6-5.2-11.7-7.2-17.4l-21.1,6.7
					l-18.9,5.4c-5.8-14-9.9-28.8-12.1-44.2l21.3-2.9l13-1.7l22-2.9l41.6-5.6c0.1,0.8,0.3,1.7,0.4,2.5c2.5,12.2,7.2,23.6,13.8,33.9
					c0.7,1.1,1.4,2.2,2.1,3.3L-1443.7,2911"/>
				<path id="path3892" inkscape:connector-curvature="0" fill="#5E2590" d="M-1306.7,2728.3c-11.6,0.9-22.8,3.6-33.1,7.7
					c-1.2,0.5-2.5,1-3.7,1.5l-18.6-43.3l-0.8-1.8l-12.2-28.3l-3.5-8c14.2-5.8,29.3-10.3,45-13.1l2.2,8.9l7.5,28.2
					c6.3-1.1,11.3-1.4,17.8-2.1l0.1,1L-1306.7,2728.3"/>
				<path id="path3894" inkscape:connector-curvature="0" fill="#0B8ED8" d="M-1244.9,2649l-8.5,36.7l-10.9,47.1
					c-2.5-0.8-5.1-1.4-7.7-2c-7.8-1.8-15.9-2.8-24.3-2.9c-1.6,0-3.1,0-4.7,0.1c-1.9,0.1-3.8,0.2-5.7,0.3l0.8-49.4l0.6-39.2
					c4.1-0.2,8.3-0.4,12.5-0.4c16.9,0,33.3,1.9,49.1,5.3L-1244.9,2649"/>
				<path id="path3896" inkscape:connector-curvature="0" fill="#5E2590" d="M-1168,2730.2l-43.4,38c-2.6-3.2-5.3-6.2-8.3-9.1
					c-5.4-5.2-11.3-9.9-17.8-14c-2-1.3-4-2.5-6.1-3.6l2.2-2.9l32.1-42.2l1.6-2c0.2-0.2,22.6-27.2,22.6-27.2l8.8,5.8
					c10.6,7,20.7,14.8,30.2,23.1c0,0,8.5,7.5,8.5,7.5L-1168,2730.2"/>
				<path id="path3898" inkscape:connector-curvature="0" fill="#B9B1B7" d="M-1367.4,2910.9c5.8,4.6,12.2,8.6,18.9,12l-21.2,47.5
					c-13.6-6.2-26.2-14.1-37.4-23.5L-1367.4,2910.9"/>
				<path id="path3900" inkscape:connector-curvature="0" fill="#B9B1B7" d="M-1406.5,2830.2c-0.1,6.2,0.5,12.4,1.5,18.3l-41.6,5.6
					l-13.2,1.8c-1.3-7.9-2-16-2-24.3c0-3.8,0.2-7.5,0.5-11.2c21.1,2.7,43.7,5.5,55,7C-1406.5,2828.3-1406.5,2829.2-1406.5,2830.2"/>
				<path id="path3902" inkscape:connector-curvature="0" fill="#0B8ED8" d="M-1151.4,2780.9l-34.1,6.4l-12.5,2.4
					c-3.6-7.7-8.1-14.9-13.4-21.5l36.5-31.9c10.9,13.2,19.7,28.1,25.6,44.2L-1151.4,2780.9"/>
				<path id="path3904" inkscape:connector-curvature="0" fill="#B9B1B7" d="M-1243.6,2741.5c-6.5-3.5-13.4-6.5-20.7-8.7l10.9-47.1
					l0.3-0.8c14,4.2,27.1,10.1,39.1,17.6l-27.5,36.2L-1243.6,2741.5"/>
				<path id="path3906" inkscape:connector-curvature="0" fill="#B9B1B7" d="M-1200.7,2950.4l-11.8-14.3l-18.8-22.8
					c8.6-6.3,16.2-13.8,22.5-22.2l23.9,10.9l20.5,10.7c-0.7,1.1-1.4,2.1-2.1,3.2c-0.4,0.6-0.8,1.3-1.3,1.9c-0.1,0.1-0.2,0.3-0.3,0.4
					C-1177.2,2930.1-1189.5,2940.1-1200.7,2950.4"/>
				<path id="path3908" inkscape:connector-curvature="0" fill="#0B8ED8" d="M-1362.1,2694.2l18.6,43.3
					c-12.6,5.6-24.2,13.7-33.6,23.2l-21.6-18.3l-18.2-15.4c14.4-13.4,31.6-25.2,48.9-35c1.3-0.6,2.5-1.1,3.8-1.7l1.4,2.1
					L-1362.1,2694.2"/>
				<path id="path3910" inkscape:connector-curvature="0" fill="#5E2590" d="M-1264.5,2929.9l16.3,27.8l6.8,11.6l2,4.1
					c-13.8,5.5-28.6,9.2-44.1,10.8l-1.1-50.1C-1277.7,2933.3-1271,2931.9-1264.5,2929.9"/>
			</g>
		</g>
	</g>
</g>
</svg>
