<?xml version="1.0" encoding="utf-8"?>
<!-- Generator: Adobe Illustrator 18.1.0, SVG Export Plug-In . SVG Version: 6.00 Build 0)  -->
<!DOCTYPE svg PUBLIC "-//W3C//DTD SVG 1.1//EN" "http://www.w3.org/Graphics/SVG/1.1/DTD/svg11.dtd">
<svg version="1.1" id="Layer_2" xmlns="http://www.w3.org/2000/svg" xmlns:xlink="http://www.w3.org/1999/xlink" x="0px" y="0px"
	 viewBox="-344 475.5 309.9 50.5" enable-background="new -344 475.5 309.9 50.5" xml:space="preserve">
<g>
	<g>
		<g enable-background="new    ">
			<path fill="#59218C" d="M-265.9,490c5,0,8.1,2.3,8.1,6c0,2.7-1.6,4.8-4.2,5.4c3.2,0.6,5.2,2.9,5.2,6.1c0,4.1-3.3,6.6-8.8,6.6
				h-10.8V490H-265.9z M-272.3,500h6.2c2.6,0,4.1-1.2,4.1-3.2s-1.5-3.1-4.1-3.1h-6.2V500z M-272.3,510.5h6.2c3.2,0,5.1-1.2,5.1-3.5
				c0-2.1-1.9-3.4-5.1-3.4h-6.2V510.5z"/>
		</g>
		<g enable-background="new    ">
			<path fill="#0B8ED8" d="M-144.8,494.1l-2.4,3c-1.8-1.9-4.3-3.1-6.7-3.1c-4.8,0-8.6,3.7-8.6,8.5s3.8,8.5,8.6,8.5
				c2.4,0,4.9-1.1,6.7-2.9l2.4,2.7c-2.4,2.4-5.9,4-9.3,4c-7.1,0-12.5-5.3-12.5-12.3c0-6.9,5.5-12.1,12.7-12.1
				C-150.6,490.4-147.1,491.8-144.8,494.1z"/>
		</g>
		<g enable-background="new    ">
			<path fill="#59218C" d="M-239.9,510.8v3.3h-12.9v-21.5h3.6v18.2C-249.2,510.8-239.9,510.8-239.9,510.8z"/>
			<path fill="#59218C" d="M-214.3,503.4c0,6.1-5,10.9-11.4,10.9c-6.4,0-11.4-4.7-11.4-10.9c0-6.2,5-10.8,11.4-10.8
				C-219.3,492.6-214.3,497.2-214.3,503.4z M-233.3,503.4c0,4.3,3.5,7.6,7.7,7.6s7.6-3.4,7.6-7.6c0-4.2-3.4-7.6-7.6-7.6
				S-233.3,499.1-233.3,503.4z"/>
			<path fill="#59218C" d="M-191.8,495.9l-2.1,2.6c-1.6-1.7-3.8-2.7-6-2.7c-4.3,0-7.7,3.3-7.7,7.5c0,4.2,3.4,7.6,7.7,7.6
				c2.1,0,4.3-1,6-2.5l2.1,2.4c-2.2,2.1-5.3,3.5-8.3,3.5c-6.3,0-11.1-4.7-11.1-10.9c0-6.1,4.9-10.8,11.3-10.8
				C-196.9,492.6-193.9,493.8-191.8,495.9z"/>
			<path fill="#59218C" d="M-180.2,504.6l-3.6,4v5.4h-3.6v-21.4h3.6v11.1l10.2-11.1h4.3l-8.3,9.2l8.8,12.3h-4.3L-180.2,504.6z"/>
		</g>
		<g enable-background="new    ">
			<path fill="#0B8ED8" d="M-132,514.7h-3.6v-7l-8-14.4h3.6l6.1,10.4l6-10.4h3.7l-7.8,14.3V514.7z"/>
			<path fill="#0B8ED8" d="M-112.1,493.3c5.4,0,8.5,2.7,8.5,7.3c0,4.8-3.1,7.7-8.5,7.7h-4.9v6.5h-3.6v-21.5H-112.1z M-117,505h4.8
				c3.3,0,5.2-1.4,5.2-4.3c0-2.8-1.9-4.2-5.2-4.2h-4.8V505z"/>
			<path fill="#0B8ED8" d="M-83.9,514.7v-8.9h-11.4v8.9h-3.6v-21.4h3.6v9.3h11.4v-9.3h3.6v21.4C-80.3,514.7-83.9,514.7-83.9,514.7z"
				/>
			<path fill="#0B8ED8" d="M-70.4,496.5v5.8h10.5v3.2h-10.5v6h12.1v3.2H-74v-21.4h15.3v3.2H-70.4z"/>
			<path fill="#0B8ED8" d="M-43.6,508.2c-0.3,0-0.6,0-1,0h-5.1v6.5h-3.6v-21.4h8.7c5.5,0,8.6,2.7,8.6,7.3c0,3.4-1.6,5.8-4.4,6.9
				l4.8,7.2h-4.1L-43.6,508.2z M-44.6,505c3.3,0,5.2-1.4,5.2-4.3c0-2.8-1.9-4.2-5.2-4.2h-5.1v8.5H-44.6z"/>
		</g>
	</g>
	<g>
		<path fill="#652D90" d="M-330,506.5l-3.5,1.8l-4.2,2.2l0.3,0.5c0.8,1.6,1.9,3,3.1,4.3l0.2,0.2l0.4,0.4l0.3-0.3l1.1-1l2.2-2
			l2.6-2.3C-328.6,509.2-329.4,507.9-330,506.5z"/>
		<path fill="#B6B3BA" d="M-300,502.6l-4.1-0.1l-1.2-0.1c-0.1,1-0.3,2-0.6,3c-0.1,0.4-0.3,0.8-0.4,1.2l1.5,0.3l4,0.8l1.5,0.3
			l2.6,0.5c0-0.1,0.1-0.2,0.1-0.3v-0.1c0.1-0.4,0.2-0.8,0.2-1.2c0-0.1,0-0.2,0.1-0.4c0.1-0.3,0.1-0.6,0.2-0.9c0-0.2,0.1-0.4,0.1-0.6
			c0-0.1,0-0.3,0-0.4c0-0.2,0-0.3,0.1-0.5c0-0.2,0-0.4,0.1-0.6c0-0.1,0-0.1,0-0.2c0-0.2,0-0.4,0-0.6L-300,502.6z"/>
		<path fill="#008ED3" d="M-326.5,491l-5.1-5l-1.5-1.5l-0.4,0.4l-0.3,0.4l-0.3,0.4v0.1l-0.4,0.6l-0.4,0.5l-0.3,0.4l-0.3,0.4
			l-0.3,0.4l-0.2,0.4l-0.3,0.4l-0.2,0.3l-0.3,0.6l-0.3,0.6l0.4,0.1l2.3,1.2l5.4,2.4c0.2-0.4,0.5-0.7,0.7-1c0.5-0.7,1.1-1.3,1.8-1.9
			V491z"/>
		<path fill="#652D90" d="M-297,494.3c-0.4-1.5-1-3.1-1.7-4.5l-0.3-0.6l-8.6,4.5l0.1,0.1c0.7,1.1,1.3,2.3,1.7,3.6l3.8-1l5.2-1.6
			L-297,494.3z"/>
		<path fill="#008ED3" d="M-303.8,482c-0.2-0.2-0.4-0.3-0.6-0.5c-0.1-0.1-0.3-0.2-0.4-0.3c-0.2-0.1-0.4-0.3-0.6-0.4
			c-0.1-0.1-0.2-0.2-0.4-0.2c-0.3-0.2-0.5-0.3-0.8-0.5c0,0,0,0-0.1,0c0,0-0.1,0-0.1-0.1c-0.7-0.4-1.4-0.8-2.1-1.2l-1.7,3.1l-1,1.9
			l-0.8,1.5l-1.9,3.5c0.1,0,0.3,0.1,0.4,0.1c1.1,0.4,2.1,1,3.1,1.6c0.2,0.1,0.3,0.2,0.5,0.4l2.2-2.9l1.4-1.8l0.9-1.2l2.2-2.8
			C-303.7,482.1-303.7,482-303.8,482z"/>
		<path fill="#008ED3" d="M-330,506.4c-0.4-1.1-0.7-2.2-0.9-3.4c0-0.4-0.1-0.8-0.1-1.1c-1.5,0.2-4.9,0.7-7.7,1.1
			c-1.6,0.2-3,0.4-3.8,0.5c0.3,2.7,1,5.3,2.1,7.7c0.1,0.3,0.3,0.6,0.3,0.6l6.6-3.4L-330,506.4L-330,506.4z"/>
		<path fill="#652D90" d="M-322,481l-0.7-4.7l-0.8,0.2c-1,0.2-1.9,0.5-2.8,0.8c-0.8,0.3-1.6,0.7-2.4,1.1l1.7,4.5l2.8,6.7
			c0.4-0.2,0.8-0.4,1.2-0.6c0.7-0.3,1.3-0.5,2-0.7L-322,481z"/>
		<path fill="#008ED3" d="M-317.6,475.7c-1.8,0-3.5,0.2-5.1,0.5v0.1l0.7,4.7l1.1,7.4c0.3-0.1,0.7-0.1,1-0.2c0.5-0.1,1.1-0.1,1.6-0.1
			c0.2,0,0.4,0,0.5,0c0.4,0,0.8,0,1.2,0.1l0.1-6.9v-0.9l0.1-4.7C-316.8,475.8-317.2,475.7-317.6,475.7z"/>
		<path fill="#008ED3" d="M-293.2,497.4l-3.9,0.4l-3.6,0.4c-0.1-0.7-0.3-1.4-0.4-2.1l-1,0.3l-3.7,1c0,0.1,0,0.1,0,0.2
			c0.3,1.1,0.5,2.3,0.5,3.5c0,0.4,0,0.8,0,1.2l4.7,0.2l3.7,0.2l3.8,0.2c0.1-0.7,0.1-1.5,0.1-2.2C-293,499.6-293.1,498.5-293.2,497.4
			z"/>
		<path fill="#652D90" d="M-335.4,491.1c-0.3,0.7-0.6,1.5-0.8,2.2l-2.6-0.8l-2.2-0.7c-0.7,1.8-1.2,3.7-1.4,5.6l2.5,0.4l1.5,0.2
			l2.6,0.4l4.9,0.7c0-0.1,0-0.2,0.1-0.3c0.3-1.6,0.9-3,1.6-4.3c0.1-0.1,0.2-0.3,0.3-0.4L-335.4,491.1z"/>
		<path fill="#652D90" d="M-319.2,514.4c-1.4-0.1-2.7-0.5-3.9-1c-0.1-0.1-0.3-0.1-0.4-0.2l-2.2,5.5l-0.1,0.2l-1.4,3.6l-0.4,1
			c1.7,0.7,3.5,1.3,5.3,1.7l0.3-1.1l0.9-3.6c0.7,0.1,1.3,0.2,2.1,0.3v-0.1L-319.2,514.4z"/>
		<path fill="#008ED3" d="M-311.9,524.5l-1-4.7l-1.3-6c-0.3,0.1-0.6,0.2-0.9,0.3c-1,0.2-1.9,0.4-2.9,0.4c-0.2,0-0.4,0-0.6,0
			c-0.2,0-0.4,0-0.7,0l0.1,6.3l0.1,5c0.5,0,1,0,1.5,0c2,0,3.9-0.2,5.8-0.7L-311.9,524.5z"/>
		<path fill="#652D90" d="M-302.8,514.2l-5.2-4.9c-0.3,0.4-0.6,0.8-1,1.2c-0.6,0.7-1.3,1.3-2.1,1.8c-0.2,0.2-0.5,0.3-0.7,0.5
			l0.3,0.4l3.8,5.4l0.2,0.3l2.7,3.5l1-0.7c1.3-0.9,2.5-1.9,3.6-2.9l1-1L-302.8,514.2z"/>
		<path fill="#B6B3BA" d="M-326.4,491.2c0.7-0.6,1.4-1.1,2.2-1.5l-2.5-6.1c-1.6,0.8-3.1,1.8-4.4,3L-326.4,491.2z"/>
		<path fill="#B6B3BA" d="M-331,501.4c0-0.8,0.1-1.6,0.2-2.3l-4.9-0.7l-1.6-0.2c-0.2,1-0.2,2-0.2,3.1c0,0.5,0,1,0.1,1.4
			c2.5-0.3,5.2-0.7,6.5-0.9C-331,501.7-331,501.6-331,501.4z"/>
		<path fill="#008ED3" d="M-300.9,507.7l-4-0.8l-1.5-0.3c-0.4,1-1,1.9-1.6,2.7l4.3,4.1c1.3-1.7,2.3-3.6,3-5.6L-300.9,507.7z"/>
		<path fill="#B6B3BA" d="M-311.8,512.7c-0.8,0.5-1.6,0.8-2.4,1.1l1.3,6v0.1c1.7-0.5,3.2-1.3,4.6-2.2l-3.3-4.6L-311.8,512.7z"/>
		<path fill="#B6B3BA" d="M-306.7,486.1l-1.4,1.8l-2.2,2.9c1,0.8,1.9,1.8,2.7,2.8l2.8-1.4l2.4-1.4c-0.1-0.1-0.2-0.3-0.3-0.4
			c-0.1-0.1-0.1-0.2-0.2-0.2c0,0,0,0,0-0.1C-303.9,488.7-305.4,487.4-306.7,486.1z"/>
		<path fill="#B6B3BA" d="M-325.8,518.8l2.2-5.5c-1.5-0.7-2.9-1.7-4-3l-2.6,2.3l-2.2,2c1.7,1.7,3.7,3.2,5.8,4.5
			c0.2,0.1,0.3,0.1,0.5,0.2l0.2-0.3L-325.8,518.8z"/>
		<path fill="#652D90" d="M-314.2,488.7l1.9-3.5l0.8-1.5l0.2-0.5c-1.6-0.7-3.4-1.2-5.2-1.4l-0.1,6.4
			C-315.8,488.3-315,488.5-314.2,488.7z"/>
	</g>
</g>
</svg>
