<?xml version="1.0" encoding="utf-8"?>
<!-- Generator: Adobe Illustrator 16.0.0, SVG Export Plug-In . SVG Version: 6.00 Build 0)  -->
<!DOCTYPE svg PUBLIC "-//W3C//DTD SVG 1.1//EN" "http://www.w3.org/Graphics/SVG/1.1/DTD/svg11.dtd">
<svg version="1.1" id="Layer_1" xmlns="http://www.w3.org/2000/svg" xmlns:xlink="http://www.w3.org/1999/xlink" x="0px" y="0px"
	 width="468px" height="60px" viewBox="0 0 468 60" enable-background="new 0 0 468 60" xml:space="preserve">
<rect fill="#313F49" width="468" height="60"/>
<g>
	<path fill="#FFFFFF" d="M240.213,3.312c9.471,0.062,19.908,1.371,30.009,4.815c5.442,1.855,10.593,4.285,15.121,7.899
		c0.361,0.29,0.705,0.6,1.065,0.892c0.426,0.347,0.674,0.766,0.319,1.267c-0.36,0.508-0.836,0.379-1.298,0.095
		c-2.304-1.422-4.722-2.625-7.218-3.671c-6.274-2.632-12.815-4.304-19.512-5.416c-7.527-1.25-15.109-1.727-22.729-1.529
		c-11.868,0.307-23.491,2.01-34.624,6.332c-0.813,0.316-1.475,0.398-2.218-0.102c-0.396-0.268-0.894-0.384-1.341-0.583
		c-0.156-0.071-0.386-0.071-0.418-0.293c-0.035-0.263,0.193-0.333,0.369-0.434c1.894-1.1,3.864-2.052,5.885-2.89
		c6.432-2.672,13.135-4.317,20.015-5.302C228.752,3.659,233.893,3.318,240.213,3.312"/>
	<path fill="#FFFFFF" d="M194.662,16.76c-4.551-1.292-9.142-0.744-13.729-0.188c-0.452,0.055-0.416,0.351-0.416,0.668
		c0.002,9.591,0.004,19.184-0.01,28.777c0,0.443,0.174,0.646,0.552,0.791c1.456,0.557,2.904,0.576,4.37,0.025
		c0.451-0.17,0.642-0.398,0.632-0.9c-0.029-1.676-0.01-3.35-0.01-5.025c0-1.678,0.01-3.354-0.007-5.031
		c-0.003-0.473,0.08-0.705,0.646-0.629c1.88,0.256,3.759,0.145,5.616-0.201c4.273-0.799,7.901-3.195,8.575-8.048
		C201.56,22.105,199.375,18.097,194.662,16.76 M191.855,30.555c-1.721,0.576-3.489,0.572-5.275,0.352
		c-0.45-0.055-0.54-0.254-0.535-0.648c0.012-1.548,0.004-3.097,0.004-4.645c0-1.496,0.012-2.993-0.009-4.488
		c-0.006-0.43,0.096-0.673,0.562-0.723c1.725-0.184,3.447-0.31,5.147,0.154c2.347,0.642,3.59,2.255,3.676,4.727
		C195.515,27.833,194.226,29.758,191.855,30.555"/>
	<path fill="#FFFFFF" d="M226.437,24.172c0.355,0.042,0.715,0.081,1.07,0.126c1.259,0.164,1.994,0.783,2.395,2.083
		c1.391,4.515,3.162,8.903,4.396,13.472c0.053,0.197,0.037,0.539,0.343,0.523c0.274-0.014,0.289-0.326,0.347-0.541
		c1.233-4.752,2.734-9.424,4.041-14.151c0.162-0.588,0.469-0.916,1.025-1.111c1.551-0.553,3.072-0.515,4.586,0.137
		c0.391,0.168,0.563,0.379,0.387,0.829c-2.8,7.23-5.109,14.65-8.34,21.712c-1.33,2.904-2.98,5.592-5.655,7.496
		c-1.273,0.906-2.656,1.551-4.183,1.904c-0.396,0.094-0.618,0.008-0.836-0.314c-0.731-1.08-1.062-2.27-1.047-3.57
		c0.004-0.492,0.188-0.752,0.701-0.93c2.517-0.873,4.392-2.51,5.644-4.869c0.314-0.596,0.357-1.145,0.106-1.768
		c-2.617-6.477-5.214-12.961-7.849-19.43c-0.251-0.619-0.104-0.873,0.463-1.088C224.809,24.386,225.593,24.164,226.437,24.172"/>
	<path fill="#FFFFFF" d="M221.982,46.1c-0.337-2.436-0.268-4.887-0.272-7.854c-0.104-2.031,0.213-4.592-0.176-7.129
		c-0.475-3.086-2.009-5.456-5.099-6.369c-3.861-1.146-7.638-0.615-11.266,1.077c-0.3,0.141-0.486,0.33-0.514,0.696
		c-0.066,0.963,0.149,1.83,0.724,2.619c0.29,0.394,0.533,0.49,1.014,0.239c1.819-0.941,3.771-1.36,5.817-1.27
		c2.436,0.108,3.985,1.579,3.936,3.668c-0.008,0.354-0.088,0.508-0.472,0.516c-0.823,0.02-1.649,0.053-2.471,0.133
		c-2.479,0.238-4.891,0.734-6.997,2.164c-2.435,1.66-3.403,4.043-3.046,6.891c0.325,2.594,1.802,4.441,4.313,5.238
		c2.889,0.92,5.586,0.404,8.014-1.451c0.357-0.271,0.625-0.947,1.046-0.764c0.402,0.174,0.278,0.865,0.356,1.332
		c0.063,0.381,0.06,0.766,0.534,0.926c1.392,0.477,2.771,0.484,4.156-0.033C221.895,46.611,222.029,46.451,221.982,46.1
		 M214.627,42.213c-1.136,0.867-2.426,1.123-3.797,0.844c-1.096-0.223-1.846-0.932-2.098-2.033c-0.312-1.361-0.1-2.625,1.021-3.592
		c1.126-0.971,2.521-1.238,3.932-1.422c0.688-0.09,1.39-0.072,2.084-0.127c0.411-0.033,0.547,0.121,0.522,0.525
		c-0.029,0.49-0.006,0.98-0.006,1.469C216.458,39.6,216.073,41.105,214.627,42.213"/>
	<path fill="#FFFFFF" d="M287.482,45.986c-0.312-2.488-0.244-4.992-0.254-7.996c-0.093-2.016,0.188-4.547-0.206-7.061
		c-0.541-3.436-2.59-5.705-5.995-6.433c-3.232-0.691-6.401-0.302-9.459,0.93c-1.524,0.614-1.775,1.243-1.163,2.795
		c0.121,0.308,0.313,0.589,0.481,0.875c0.26,0.444,0.535,0.54,1.058,0.269c1.792-0.931,3.72-1.338,5.739-1.258
		c2.422,0.093,3.842,1.383,3.987,3.548c0.03,0.469-0.093,0.641-0.582,0.641c-0.825,0.004-1.65,0.045-2.471,0.133
		c-2.476,0.26-4.89,0.756-6.979,2.221c-2.318,1.631-3.295,3.932-2.98,6.699c0.307,2.697,1.816,4.605,4.424,5.406
		c2.859,0.877,5.541,0.346,7.942-1.494c0.35-0.27,0.59-0.943,1.041-0.75c0.382,0.162,0.295,0.82,0.32,1.273
		c0.041,0.662,0.384,0.977,1.019,1.131c1.185,0.289,2.341,0.256,3.502-0.109C287.323,46.676,287.548,46.492,287.482,45.986
		 M280.093,42.252c-1.101,0.813-2.34,1.068-3.657,0.822c-1.061-0.195-1.835-0.816-2.129-1.893c-0.352-1.289-0.248-2.516,0.73-3.525
		c1.131-1.162,2.635-1.439,4.148-1.646c0.687-0.094,1.389-0.074,2.082-0.125c0.393-0.029,0.569,0.098,0.546,0.516
		c-0.028,0.488-0.006,0.979-0.006,1.469C281.956,39.611,281.587,41.15,280.093,42.252"/>
	<path fill="#FFFFFF" d="M257.006,46.656c-2.863,0-5.726-0.014-8.59,0.016c-0.582,0.004-0.682-0.193-0.75-0.746
		c-0.219-1.76,0.398-3.109,1.525-4.459c3.222-3.854,6.095-7.992,9.488-11.708c0.133-0.146,0.38-0.289,0.264-0.509
		c-0.121-0.234-0.406-0.171-0.635-0.171c-2.965,0-5.93-0.023-8.896,0.016c-0.702,0.011-1.056-0.195-1.111-0.899
		c-0.024-0.332-0.127-0.66-0.136-0.991c-0.082-2.317,0.121-2.528,2.371-2.528c4.9,0,9.799,0.012,14.701-0.016
		c0.625-0.004,0.712,0.201,0.775,0.779c0.203,1.827-0.379,3.257-1.57,4.677c-3.152,3.744-5.961,7.77-9.229,11.424
		c-0.133,0.146-0.359,0.279-0.247,0.514c0.129,0.266,0.41,0.154,0.626,0.156c3.248,0.008,6.496,0.025,9.746-0.012
		c0.699-0.008,1.009,0.195,1.135,0.889c0.182,0.982,0.171,1.939-0.047,2.906c-0.117,0.52-0.373,0.686-0.912,0.682
		C262.678,46.643,259.844,46.656,257.006,46.656"/>
</g>
</svg>
