<svg version="1.1" id="Layer_1" xmlns="http://www.w3.org/2000/svg" xmlns:xlink="http://www.w3.org/1999/xlink" x="0px" y="0px"
	 viewBox="0 0 330 330" enable-background="new 0 0 330 330" xml:space="preserve">
<g>
	<path fill="#0B8ED8" d="M47,165c0,9.9-7.9,17.7-17.5,17.7s-17.5-7.9-17.5-17.7s7.9-17.7,17.5-17.7S47,155.4,47,165z"/>
	<path fill="#0B8ED8" d="M113.6,165c0,9.9-7.9,17.7-17.5,17.7s-17.5-7.9-17.5-17.7s7.9-17.7,17.5-17.7S113.6,155.4,113.6,165z"/>
	<path fill="#0B8ED8" d="M180.5,165c0,9.9-7.9,17.7-17.5,17.7s-17.5-7.9-17.5-17.7s7.9-17.7,17.5-17.7S180.5,155.4,180.5,165z"/>
	<g>
		<polygon fill="#592D88" points="226.1,203.1 226.1,241.2 317.9,165 226.1,88.8 226.1,126.9"/>
	</g>
</g>
</svg>
