<svg version="1.1" id="Layer_1" xmlns="http://www.w3.org/2000/svg" xmlns:xlink="http://www.w3.org/1999/xlink" x="0px" y="0px"
	 viewBox="0 0 330 330" enable-background="new 0 0 330 330" xml:space="preserve">
<circle fill="#2D9D31" cx="165" cy="165" r="165"/>
<g>
	<path fill="#FFFFFF" d="M76.3,161.6c0-0.7,0-1.4,0-2.2c0-52.1,42.1-94.3,94.1-94.3c7,0,13.9,0.8,20.5,2.2C182.6,65.2,174,64,165,64
		c-55.8,0-101,45.2-101,101c0,5.3,0.4,10.5,1.2,15.6C67.4,174.5,71,168.2,76.3,161.6z"/>
	<path fill="#FFFFFF" d="M260.4,131.8c2.7,8.7,4.1,18,4.1,27.6c0,52.1-42.1,94.3-94.1,94.3c-9.5,0-18.7-1.4-27.4-4.1
		c2.4-24.6-6-33.4-12.2-42.7c-5.5-9.5-30.4-23.6-42.2-29.3c-11.8-5.7-7.8-16.1-7.8-16.1c-29.6,33.9-12.9,61.2-4.6,73.5
		c16.2,22.3,40,24.6,52.3,24.1c11.3,4.4,23.6,6.8,36.5,6.8c55.8,0,101-45.2,101-101C266,153.4,264,142.2,260.4,131.8z M146.6,253.6
		l-1.1,0.2c-1.4-1.3-2.7-2.6-2.7-2.9c0-0.2,0-0.5,0.1-0.7C144.6,251.8,146.6,253.6,146.6,253.6z"/>
</g>
</svg>
